{
  "accessors": [
    {
      "bufferView": 2,
      "componentType": 5126,
      "count": 247,
      "max": [
        6.820229530334473,
        3.4217112064361572,
        9.551403999328613
      ],
      "min": [
        6.714756965637207,
        3.314903497695923,
        9.520271301269531
      ],
      "type": "VEC3"
    },
    {
      "bufferView": 2,
      "byteOffset": 2964,
      "componentType": 5126,
      "count": 247,
      "max": [
        1.0,
        0.9962621927261353,
        0.9962633848190308
      ],
      "min": [
        -1.0,
        -0.9962632656097412,
        -0.9962599873542786
      ],
      "type": "VEC3"
    },
    {
      "bufferView": 1,
      "componentType": 5126,
      "count": 247,
      "max": [
        0.65625,
        1.0
      ],
      "min": [
        0.3437499403953552,
        -7.450580596923828e-08
      ],
      "type": "VEC2"
    },
    {
      "bufferView": 0,
      "componentType": 5125,
      "count": 663,
      "type": "SCALAR"
    },
    {
      "bufferView": 2,
      "byteOffset": 5928,
      "componentType": 5126,
      "count": 1346,
      "max": [
        7.4528045654296875,
        3.450622320175171,
        9.551403999328613
      ],
      "min": [
        6.056188583374023,
        3.19795560836792,
        8.766481399536133
      ],
      "type": "VEC3"
    },
    {
      "bufferView": 2,
      "byteOffset": 22080,
      "componentType": 5126,
      "count": 1346,
      "max": [
        1.0,
        0.996259331703186,
        0.9997819066047668
      ],
      "min": [
        -1.0,
        -0.9962613582611084,
        -0.9997820258140564
      ],
      "type": "VEC3"
    },
    {
      "bufferView": 1,
      "byteOffset": 1976,
      "componentType": 5126,
      "count": 1346,
      "max": [
        0.65625,
        1.0
      ],
      "min": [
        0.3437499403953552,
        -7.450580596923828e-08
      ],
      "type": "VEC2"
    },
    {
      "bufferView": 0,
      "byteOffset": 2652,
      "componentType": 5125,
      "count": 3657,
      "type": "SCALAR"
    },
    {
      "bufferView": 2,
      "byteOffset": 38232,
      "componentType": 5126,
      "count": 9915,
      "max": [
        8.524545669555664,
        4.446313858032227,
        9.655406951904297
      ],
      "min": [
        5.158480644226074,
        0.1512095332145691,
        8.02102279663086
      ],
      "type": "VEC3"
    },
    {
      "bufferView": 2,
      "byteOffset": 157212,
      "componentType": 5126,
      "count": 9915,
      "max": [
        1.0,
        1.0,
        1.0
      ],
      "min": [
        -1.0,
        -1.0,
        -1.0
      ],
      "type": "VEC3"
    },
    {
      "bufferView": 1,
      "byteOffset": 12744,
      "componentType": 5126,
      "count": 9915,
      "max": [
        0.65625,
        1.0
      ],
      "min": [
        0.3437499701976776,
        -7.450580596923828e-08
      ],
      "type": "VEC2"
    },
    {
      "bufferView": 0,
      "byteOffset": 17280,
      "componentType": 5125,
      "count": 35460,
      "type": "SCALAR"
    },
    {
      "bufferView": 2,
      "byteOffset": 276192,
      "componentType": 5126,
      "count": 1989,
      "max": [
        8.524542808532715,
        3.338674545288086,
        9.607603073120117
      ],
      "min": [
        5.042211532592773,
        -0.10306190699338913,
        8.088180541992188
      ],
      "type": "VEC3"
    },
    {
      "bufferView": 2,
      "byteOffset": 300060,
      "componentType": 5126,
      "count": 1989,
      "max": [
        0.9993398189544678,
        0.9997462034225464,
        0.9988968968391418
      ],
      "min": [
        -0.9993664622306824,
        -0.9999287128448486,
        -0.9991234540939331
      ],
      "type": "VEC3"
    },
    {
      "bufferView": 1,
      "byteOffset": 92064,
      "componentType": 5126,
      "count": 1989,
      "max": [
        0.65625,
        1.0
      ],
      "min": [
        0.3437499403953552,
        -7.450580596923828e-08
      ],
      "type": "VEC2"
    },
    {
      "bufferView": 0,
      "byteOffset": 159120,
      "componentType": 5125,
      "count": 8868,
      "type": "SCALAR"
    },
    {
      "bufferView": 2,
      "byteOffset": 323928,
      "componentType": 5126,
      "count": 443,
      "max": [
        7.242242813110352,
        4.506338596343994,
        9.584794998168945
      ],
      "min": [
        6.139245986938477,
        3.3483967781066895,
        8.372122764587402
      ],
      "type": "VEC3"
    },
    {
      "bufferView": 2,
      "byteOffset": 329244,
      "componentType": 5126,
      "count": 443,
      "max": [
        0.9980566501617432,
        0.9957979917526245,
        0.9974517226219177
      ],
      "min": [
        -0.9954754710197449,
        -0.9987525343894958,
        -0.982350766658783
      ],
      "type": "VEC3"
    },
    {
      "bufferView": 1,
      "byteOffset": 107976,
      "componentType": 5126,
      "count": 443,
      "max": [
        0.9764957427978516,
        0.9157057404518127
      ],
      "min": [
        0.12284088134765625,
        0.03952789306640625
      ],
      "type": "VEC2"
    },
    {
      "bufferView": 0,
      "byteOffset": 194592,
      "componentType": 5125,
      "count": 2274,
      "type": "SCALAR"
    },
    {
      "bufferView": 2,
      "byteOffset": 334560,
      "componentType": 5126,
      "count": 525,
      "max": [
        6.986232757568359,
        3.2353482246398926,
        10.400300979614258
      ],
      "min": [
        5.363870620727539,
        2.6676723957061768,
        7.390666961669922
      ],
      "type": "VEC3"
    },
    {
      "bufferView": 2,
      "byteOffset": 340860,
      "componentType": 5126,
      "count": 525,
      "max": [
        0.9980056881904602,
        0.9986385107040405,
        0.9902392625808716
      ],
      "min": [
        -0.9912286996841431,
        -0.999356746673584,
        -0.9992944598197937
      ],
      "type": "VEC3"
    },
    {
      "bufferView": 1,
      "byteOffset": 111520,
      "componentType": 5126,
      "count": 525,
      "max": [
        0.65625,
        1.0
      ],
      "min": [
        0.3437499701976776,
        -7.450580596923828e-08
      ],
      "type": "VEC2"
    },
    {
      "bufferView": 0,
      "byteOffset": 203688,
      "componentType": 5125,
      "count": 2760,
      "type": "SCALAR"
    },
    {
      "bufferView": 2,
      "byteOffset": 347160,
      "componentType": 5126,
      "count": 1386,
      "max": [
        7.5747389793396,
        3.457911968231201,
        9.719049453735352
      ],
      "min": [
        6.4835944175720215,
        2.4316866397857666,
        7.367750644683838
      ],
      "type": "VEC3"
    },
    {
      "bufferView": 2,
      "byteOffset": 363792,
      "componentType": 5126,
      "count": 1386,
      "max": [
        0.9999968409538269,
        1.0,
        1.0
      ],
      "min": [
        -0.9999968409538269,
        -1.0,
        -1.0
      ],
      "type": "VEC3"
    },
    {
      "bufferView": 1,
      "byteOffset": 115720,
      "componentType": 5126,
      "count": 1386,
      "max": [
        0.8625011444091797,
        1.0
      ],
      "min": [
        0.1374988555908203,
        -7.450580596923828e-08
      ],
      "type": "VEC2"
    },
    {
      "bufferView": 0,
      "byteOffset": 214728,
      "componentType": 5125,
      "count": 3516,
      "type": "SCALAR"
    },
    {
      "bufferView": 2,
      "byteOffset": 380424,
      "componentType": 5126,
      "count": 1061,
      "max": [
        7.655704498291016,
        3.9961130619049072,
        8.619067192077637
      ],
      "min": [
        5.960482120513916,
        1.403664231300354,
        6.874844551086426
      ],
      "type": "VEC3"
    },
    {
      "bufferView": 2,
      "byteOffset": 393156,
      "componentType": 5126,
      "count": 1061,
      "max": [
        1.0,
        0.9998686909675598,
        0.9970972537994385
      ],
      "min": [
        -1.0,
        -0.9995347261428833,
        -0.9999924302101135
      ],
      "type": "VEC3"
    },
    {
      "bufferView": 1,
      "byteOffset": 126808,
      "componentType": 5126,
      "count": 1061,
      "max": [
        0.8504016399383545,
        0.9749600887298584
      ],
      "min": [
        0.1500399112701416,
        -5.587935891782081e-09
      ],
      "type": "VEC2"
    },
    {
      "bufferView": 0,
      "byteOffset": 228792,
      "componentType": 5125,
      "count": 2124,
      "type": "SCALAR"
    },
    {
      "bufferView": 2,
      "byteOffset": 405888,
      "componentType": 5126,
      "count": 553,
      "max": [
        7.762480735778809,
        4.7042341232299805,
        9.876546859741211
      ],
      "min": [
        5.794377326965332,
        3.663235664367676,
        8.993477821350098
      ],
      "type": "VEC3"
    },
    {
      "bufferView": 2,
      "byteOffset": 412524,
      "componentType": 5126,
      "count": 553,
      "max": [
        0.9991478323936462,
        0.4319678246974945,
        0.999042809009552
      ],
      "min": [
        -0.9993008375167847,
        -0.9701665639877319,
        -0.03738659620285034
      ],
      "type": "VEC3"
    },
    {
      "bufferView": 1,
      "byteOffset": 135296,
      "componentType": 5126,
      "count": 553,
      "max": [
        1.0000001192092896,
        1.0
      ],
      "min": [
        0.0,
        0.0
      ],
      "type": "VEC2"
    },
    {
      "bufferView": 0,
      "byteOffset": 237288,
      "componentType": 5125,
      "count": 2484,
      "type": "SCALAR"
    },
    {
      "bufferView": 2,
      "byteOffset": 419160,
      "componentType": 5126,
      "count": 2266,
      "max": [
        7.762480735778809,
        5.168994903564453,
        9.833503723144531
      ],
      "min": [
        5.794377326965332,
        3.2279655933380127,
        8.062295913696289
      ],
      "type": "VEC3"
    },
    {
      "bufferView": 2,
      "byteOffset": 446352,
      "componentType": 5126,
      "count": 2266,
      "max": [
        0.9991478323936462,
        0.9997667670249939,
        0.9840312600135803
      ],
      "min": [
        -0.9993008375167847,
        -0.9997667670249939,
        -0.9990462064743042
      ],
      "type": "VEC3"
    },
    {
      "bufferView": 1,
      "byteOffset": 139720,
      "componentType": 5126,
      "count": 2266,
      "max": [
        1.0000001192092896,
        1.0
      ],
      "min": [
        0.0,
        0.0
      ],
      "type": "VEC2"
    },
    {
      "bufferView": 0,
      "byteOffset": 247224,
      "componentType": 5125,
      "count": 12396,
      "type": "SCALAR"
    },
    {
      "bufferView": 2,
      "byteOffset": 473544,
      "componentType": 5126,
      "count": 284,
      "max": [
        6.219590187072754,
        3.0918354988098145,
        7.829125881195068
      ],
      "min": [
        6.039670467376709,
        2.6291732788085938,
        7.367750644683838
      ],
      "type": "VEC3"
    },
    {
      "bufferView": 2,
      "byteOffset": 476952,
      "componentType": 5126,
      "count": 284,
      "max": [
        0.9999671578407288,
        0.999967098236084,
        1.0
      ],
      "min": [
        -0.9999672174453735,
        -0.999967098236084,
        -1.0
      ],
      "type": "VEC3"
    },
    {
      "bufferView": 1,
      "byteOffset": 157848,
      "componentType": 5126,
      "count": 284,
      "max": [
        0.65625,
        1.0
      ],
      "min": [
        0.3437499701976776,
        -7.450580596923828e-08
      ],
      "type": "VEC2"
    },
    {
      "bufferView": 0,
      "byteOffset": 296808,
      "componentType": 5125,
      "count": 840,
      "type": "SCALAR"
    }
  ],
  "asset": {
    "extras": {
      "author": "Tomas Anglim (https://sketchfab.com/tomas.anglim.811)",
      "license": "CC-BY-4.0 (http://creativecommons.org/licenses/by/4.0/)",
      "source": "https://sketchfab.com/3d-models/stylized-spaceman-645a8a97514641e599cdd6ee3d4e4416",
      "title": "Stylized spaceman"
    },
    "generator": "Sketchfab-12.68.0",
    "version": "2.0"
  },
  "bufferViews": [
    {
      "buffer": 0,
      "byteLength": 300168,
      "name": "floatBufferViews",
      "target": 34963
    },
    {
      "buffer": 0,
      "byteLength": 160120,
      "byteOffset": 300168,
      "byteStride": 8,
      "name": "floatBufferViews",
      "target": 34962
    },
    {
      "buffer": 0,
      "byteLength": 480360,
      "byteOffset": 460288,
      "byteStride": 12,
      "name": "floatBufferViews",
      "target": 34962
    }
  ],
  "buffers": [
    {
      "byteLength": 940648,
      "uri": "scene.bin"
    }
  ],
  "materials": [
    {
      "doubleSided": true,
      "name": "lambert15",
      "pbrMetallicRoughness": {
        "baseColorFactor": [
          0.10340415119459043,
          0.06566173697269637,
          0.06566173697269637,
          1.0
        ],
        "metallicFactor": 0.0,
        "roughnessFactor": 0.6
      }
    },
    {
      "doubleSided": true,
      "name": "lambert16",
      "pbrMetallicRoughness": {
        "baseColorFactor": [
          0.020615301406213968,
          0.020953062367491004,
          0.017515757900723246,
          1.0
        ],
        "metallicFactor": 0.0,
        "roughnessFactor": 0.6
      }
    },
    {
      "doubleSided": true,
      "name": "lambert11",
      "pbrMetallicRoughness": {
        "baseColorFactor": [
          0.11444655530321654,
          0.11129516865316202,
          0.11129516865316202,
          1.0
        ],
        "metallicFactor": 0.5168181910659327,
        "roughnessFactor": 0.6137878880356298
      }
    },
    {
      "doubleSided": true,
      "name": "lambert3",
      "pbrMetallicRoughness": {
        "baseColorFactor": [
          0.1826744278300318,
          0.17854903835736088,
          0.14075708266544262,
          1.0
        ],
        "metallicFactor": 0.0,
        "roughnessFactor": 0.6
      }
    },
    {
      "doubleSided": true,
      "name": "lambert9",
      "pbrMetallicRoughness": {
        "metallicFactor": 0.0,
        "roughnessFactor": 0.6
      }
    },
    {
      "doubleSided": true,
      "name": "lambert13",
      "pbrMetallicRoughness": {
        "baseColorFactor": [
          0.1515700629351399,
          0.1515700629351399,
          0.1515700629351399,
          1.0
        ]
      }
    },
    {
      "doubleSided": true,
      "name": "lambert1",
      "pbrMetallicRoughness": {
        "baseColorFactor": [
          0.038889759008701716,
          0.01313428557278169,
          0.01313428557278169,
          1.0
        ],
        "metallicFactor": 0.0,
        "roughnessFactor": 0.6
      }
    },
    {
      "doubleSided": true,
      "name": "lambert12",
      "pbrMetallicRoughness": {
        "baseColorFactor": [
          0.06978239428655568,
          0.06978239428655568,
          0.06978239428655568,
          1.0
        ],
        "metallicFactor": 0.0,
        "roughnessFactor": 0.6
      }
    },
    {
      "doubleSided": true,
      "emissiveFactor": [
        0.1138788422272192,
        0.8479632329568312,
        1.0
      ],
      "name": "lambert17",
      "pbrMetallicRoughness": {
        "baseColorFactor": [
          0.3258251128959448,
          0.9716962342883801,
          1.0,
          1.0
        ],
        "metallicFactor": 0.0,
        "roughnessFactor": 0.6
      }
    },
    {
      "doubleSided": true,
      "name": "lambert10",
      "pbrMetallicRoughness": {
        "baseColorFactor": [
          0.08563203347016378,
          0.08563203347016378,
          0.08563203347016378,
          1.0
        ],
        "metallicFactor": 0.0,
        "roughnessFactor": 0.6
      }
    },
    {
      "doubleSided": true,
      "name": "lambert14",
      "pbrMetallicRoughness": {
        "baseColorFactor": [
          0.05034630768931716,
          0.014014675834395082,
          0.014014675834395082,
          1.0
        ],
        "metallicFactor": 0.0,
        "roughnessFactor": 0.6
      }
    }
  ],
  "meshes": [
    {
      "name": "polySurface130_lambert15_0",
      "primitives": [
        {
          "attributes": {
            "NORMAL": 1,
            "POSITION": 0,
            "TEXCOORD_0": 2
          },
          "indices": 3,
          "material": 0,
          "mode": 4
        }
      ]
    },
    {
      "name": "polySurface130_lambert16_0",
      "primitives": [
        {
          "attributes": {
            "NORMAL": 5,
            "POSITION": 4,
            "TEXCOORD_0": 6
          },
          "indices": 7,
          "material": 1,
          "mode": 4
        }
      ]
    },
    {
      "name": "polySurface130_lambert11_0",
      "primitives": [
        {
          "attributes": {
            "NORMAL": 9,
            "POSITION": 8,
            "TEXCOORD_0": 10
          },
          "indices": 11,
          "material": 2,
          "mode": 4
        }
      ]
    },
    {
      "name": "polySurface130_lambert3_0",
      "primitives": [
        {
          "attributes": {
            "NORMAL": 13,
            "POSITION": 12,
            "TEXCOORD_0": 14
          },
          "indices": 15,
          "material": 3,
          "mode": 4
        }
      ]
    },
    {
      "name": "polySurface130_lambert9_0",
      "primitives": [
        {
          "attributes": {
            "NORMAL": 17,
            "POSITION": 16,
            "TEXCOORD_0": 18
          },
          "indices": 19,
          "material": 4,
          "mode": 4
        }
      ]
    },
    {
      "name": "polySurface130_lambert13_0",
      "primitives": [
        {
          "attributes": {
            "NORMAL": 21,
            "POSITION": 20,
            "TEXCOORD_0": 22
          },
          "indices": 23,
          "material": 5,
          "mode": 4
        }
      ]
    },
    {
      "name": "polySurface130_lambert1_0",
      "primitives": [
        {
          "attributes": {
            "NORMAL": 25,
            "POSITION": 24,
            "TEXCOORD_0": 26
          },
          "indices": 27,
          "material": 6,
          "mode": 4
        }
      ]
    },
    {
      "name": "polySurface130_lambert12_0",
      "primitives": [
        {
          "attributes": {
            "NORMAL": 29,
            "POSITION": 28,
            "TEXCOORD_0": 30
          },
          "indices": 31,
          "material": 7,
          "mode": 4
        }
      ]
    },
    {
      "name": "polySurface130_lambert17_0",
      "primitives": [
        {
          "attributes": {
            "NORMAL": 33,
            "POSITION": 32,
            "TEXCOORD_0": 34
          },
          "indices": 35,
          "material": 8,
          "mode": 4
        }
      ]
    },
    {
      "name": "polySurface130_lambert10_0",
      "primitives": [
        {
          "attributes": {
            "NORMAL": 37,
            "POSITION": 36,
            "TEXCOORD_0": 38
          },
          "indices": 39,
          "material": 9,
          "mode": 4
        }
      ]
    },
    {
      "name": "polySurface130_lambert14_0",
      "primitives": [
        {
          "attributes": {
            "NORMAL": 41,
            "POSITION": 40,
            "TEXCOORD_0": 42
          },
          "indices": 43,
          "material": 10,
          "mode": 4
        }
      ]
    }
  ],
  "nodes": [
    {
      "children": [
        1
      ],
      "matrix": [
        1.0,
        0.0,
        0.0,
        0.0,
        0.0,
        2.220446049250313e-16,
        -1.0,
        0.0,
        0.0,
        1.0,
        2.220446049250313e-16,
        0.0,
        0.0,
        0.0,
        0.0,
        1.0
      ],
      "name": "Sketchfab_model"
    },
    {
      "children": [
        2
      ],
      "matrix": [
        1.0,
        0.0,
        0.0,
        0.0,
        0.0,
        0.0,
        1.0,
        0.0,
        0.0,
        -1.0,
        0.0,
        0.0,
        0.0,
        0.0,
        0.0,
        1.0
      ],
      "name": "de59bae6ec6a44d9b12c3be3cb42aebc.fbx"
    },
    {
      "children": [
        3
      ],
      "name": "RootNode"
    },
    {
      "children": [
        4,
        5,
        6,
        7,
        8,
        9,
        10,
        11,
        12,
        13,
        14
      ],
      "name": "polySurface130"
    },
    {
      "mesh": 0,
      "name": "polySurface130_lambert15_0"
    },
    {
      "mesh": 1,
      "name": "polySurface130_lambert16_0"
    },
    {
      "mesh": 2,
      "name": "polySurface130_lambert11_0"
    },
    {
      "mesh": 3,
      "name": "polySurface130_lambert3_0"
    },
    {
      "mesh": 4,
      "name": "polySurface130_lambert9_0"
    },
    {
      "mesh": 5,
      "name": "polySurface130_lambert13_0"
    },
    {
      "mesh": 6,
      "name": "polySurface130_lambert1_0"
    },
    {
      "mesh": 7,
      "name": "polySurface130_lambert12_0"
    },
    {
      "mesh": 8,
      "name": "polySurface130_lambert17_0"
    },
    {
      "mesh": 9,
      "name": "polySurface130_lambert10_0"
    },
    {
      "mesh": 10,
      "name": "polySurface130_lambert14_0"
    }
  ],
  "scene": 0,
  "scenes": [
    {
      "name": "Sketchfab_Scene",
      "nodes": [
        0
      ]
    }
  ]
}
