{
  "accessors": [
    {
      "bufferView": 2,
      "componentType": 5126,
      "count": 2316,
      "max": [
        0.8301838040351868,
        0.5627475380897522,
        0.6049985289573669
      ],
      "min": [
        0.3363359868526459,
        0.4270464777946472,
        -1.0444190502166748
      ],
      "type": "VEC3"
    },
    {
      "bufferView": 2,
      "byteOffset": 27792,
      "componentType": 5126,
      "count": 2316,
      "max": [
        0.9768114686012268,
        0.9768176674842834,
        1.0
      ],
      "min": [
        -0.976811408996582,
        -0.2141043096780777,
        -1.0
      ],
      "type": "VEC3"
    },
    {
      "bufferView": 1,
      "componentType": 5126,
      "count": 2316,
      "max": [
        1.0,
        0.9310257434844971
      ],
      "min": [
        0.0,
        0.27832725644111633
      ],
      "type": "VEC2"
    },
    {
      "bufferView": 0,
      "componentType": 5125,
      "count": 3474,
      "type": "SCALAR"
    },
    {
      "bufferView": 2,
      "byteOffset": 55584,
      "componentType": 5126,
      "count": 4792,
      "max": [
        1.1800079345703125,
        2.3057875633239746,
        1.32060706615448
      ],
      "min": [
        -1.5780047178268433,
        0.21119773387908936,
        -1.32060706615448
      ],
      "type": "VEC3"
    },
    {
      "bufferView": 2,
      "byteOffset": 113088,
      "componentType": 5126,
      "count": 4792,
      "max": [
        1.0,
        1.0,
        1.0
      ],
      "min": [
        -1.0,
        -1.0,
        -1.0
      ],
      "type": "VEC3"
    },
    {
      "bufferView": 1,
      "byteOffset": 18528,
      "componentType": 5126,
      "count": 4792,
      "max": [
        0.9996305108070374,
        0.9427181482315063
      ],
      "min": [
        0.00036953389644622803,
        0.0003695487976074219
      ],
      "type": "VEC2"
    },
    {
      "bufferView": 0,
      "byteOffset": 13896,
      "componentType": 5125,
      "count": 7497,
      "type": "SCALAR"
    },
    {
      "bufferView": 2,
      "byteOffset": 170592,
      "componentType": 5126,
      "count": 19704,
      "max": [
        1.0224047899246216,
        2.296753406524658,
        1.2250691652297974
      ],
      "min": [
        -1.4204015731811523,
        -0.17718367278575897,
        -1.1510496139526367
      ],
      "type": "VEC3"
    },
    {
      "bufferView": 2,
      "byteOffset": 407040,
      "componentType": 5126,
      "count": 19704,
      "max": [
        1.0,
        1.0,
        1.0
      ],
      "min": [
        -1.0,
        -1.0,
        -1.0
      ],
      "type": "VEC3"
    },
    {
      "bufferView": 1,
      "byteOffset": 56864,
      "componentType": 5126,
      "count": 19704,
      "max": [
        0.9648096561431885,
        0.999540388584137
      ],
      "min": [
        0.0004595518112182617,
        0.0004595518112182617
      ],
      "type": "VEC2"
    },
    {
      "bufferView": 0,
      "byteOffset": 43884,
      "componentType": 5125,
      "count": 22002,
      "type": "SCALAR"
    },
    {
      "bufferView": 2,
      "byteOffset": 643488,
      "componentType": 5126,
      "count": 44,
      "max": [
        0.6255956292152405,
        0.5437083840370178,
        1.2051522731781006
      ],
      "min": [
        0.5732247829437256,
        0.5363801121711731,
        0.8528651595115662
      ],
      "type": "VEC3"
    },
    {
      "bufferView": 2,
      "byteOffset": 644016,
      "componentType": 5126,
      "count": 44,
      "max": [
        0.13858436048030853,
        0.9903513789176941,
        -0.0
      ],
      "min": [
        0.1385793387889862,
        0.9903506636619568,
        -0.0
      ],
      "type": "VEC3"
    },
    {
      "bufferView": 1,
      "byteOffset": 214496,
      "componentType": 5126,
      "count": 44,
      "max": [
        0.15013515949249268,
        0.9999614953994751
      ],
      "min": [
        3.8743019104003906e-05,
        3.8743019104003906e-05
      ],
      "type": "VEC2"
    },
    {
      "bufferView": 0,
      "byteOffset": 131892,
      "componentType": 5125,
      "count": 66,
      "type": "SCALAR"
    },
    {
      "bufferView": 2,
      "byteOffset": 644544,
      "componentType": 5126,
      "count": 28,
      "max": [
        -0.0955490991473198,
        1.0191166400909424,
        1.1615948677062988
      ],
      "min": [
        -0.09554912894964218,
        0.7221171855926514,
        -1.153520941734314
      ],
      "type": "VEC3"
    },
    {
      "bufferView": 2,
      "byteOffset": 644880,
      "componentType": 5126,
      "count": 28,
      "max": [
        1.0,
        2.0750245965928116e-08,
        6.6755334593437965e-09
      ],
      "min": [
        1.0,
        0.0,
        -8.179239507910552e-10
      ],
      "type": "VEC3"
    },
    {
      "bufferView": 1,
      "byteOffset": 214848,
      "componentType": 5126,
      "count": 28,
      "max": [
        0.9925042986869812,
        0.7762603759765625
      ],
      "min": [
        0.007681180257350206,
        0.3024846613407135
      ],
      "type": "VEC2"
    },
    {
      "bufferView": 0,
      "byteOffset": 132156,
      "componentType": 5125,
      "count": 66,
      "type": "SCALAR"
    },
    {
      "bufferView": 2,
      "byteOffset": 645216,
      "componentType": 5126,
      "count": 289,
      "max": [
        -0.23209795355796814,
        2.250561475753784,
        0.8213918209075928
      ],
      "min": [
        -0.30497461557388306,
        1.285906195640564,
        -0.8172246217727661
      ],
      "type": "VEC3"
    },
    {
      "bufferView": 2,
      "byteOffset": 648684,
      "componentType": 5126,
      "count": 289,
      "max": [
        1.0,
        0.2141331136226654,
        0.1408546268939972
      ],
      "min": [
        0.9768044948577881,
        -0.2063017338514328,
        -0.1400250941514969
      ],
      "type": "VEC3"
    },
    {
      "bufferView": 1,
      "byteOffset": 215072,
      "componentType": 5126,
      "count": 289,
      "max": [
        1.0000001192092896,
        1.0000001192092896
      ],
      "min": [
        0.0,
        0.0
      ],
      "type": "VEC2"
    },
    {
      "bufferView": 1,
      "byteOffset": 217384,
      "componentType": 5126,
      "count": 289,
      "max": [
        1.0000001192092896,
        1.0000001192092896
      ],
      "min": [
        0.0,
        0.0
      ],
      "type": "VEC2"
    },
    {
      "bufferView": 0,
      "byteOffset": 132420,
      "componentType": 5125,
      "count": 1536,
      "type": "SCALAR"
    }
  ],
  "asset": {
    "extras": {
      "author": "Smoothie 3D (https://sketchfab.com/arisyn08)",
      "license": "CC-BY-4.0 (http://creativecommons.org/licenses/by/4.0/)",
      "source": "https://sketchfab.com/3d-models/70s-retro-computer-asset-old-commodore-pet-8bc5b66e5b6147888294862705e0671b",
      "title": "70's Retro Computer Asset - Old Commodore PET"
    },
    "generator": "Sketchfab-14.21.0",
    "version": "2.0"
  },
  "bufferViews": [
    {
      "buffer": 0,
      "byteLength": 138564,
      "name": "floatBufferViews",
      "target": 34963
    },
    {
      "buffer": 0,
      "byteLength": 219696,
      "byteOffset": 138564,
      "byteStride": 8,
      "name": "floatBufferViews",
      "target": 34962
    },
    {
      "buffer": 0,
      "byteLength": 652152,
      "byteOffset": 358260,
      "byteStride": 12,
      "name": "floatBufferViews",
      "target": 34962
    }
  ],
  "buffers": [
    {
      "byteLength": 1010412,
      "uri": "scene.bin"
    }
  ],
  "images": [
    {
      "uri": "textures/Material_baseColor.png"
    },
    {
      "uri": "textures/Case_baseColor.png"
    },
    {
      "uri": "textures/Black_Plastic_baseColor.png"
    },
    {
      "uri": "textures/Shiny_baseColor.png"
    },
    {
      "uri": "textures/Front_Texture_baseColor.png"
    },
    {
      "uri": "textures/Screen_baseColor.png"
    }
  ],
  "materials": [
    {
      "doubleSided": true,
      "name": "Material",
      "pbrMetallicRoughness": {
        "baseColorTexture": {
          "index": 0
        },
        "metallicFactor": 0.0,
        "roughnessFactor": 0.0
      }
    },
    {
      "doubleSided": true,
      "name": "Case",
      "pbrMetallicRoughness": {
        "baseColorTexture": {
          "index": 1
        },
        "metallicFactor": 0.44,
        "roughnessFactor": 0.454286
      }
    },
    {
      "doubleSided": true,
      "name": "Black_Plastic",
      "pbrMetallicRoughness": {
        "baseColorTexture": {
          "index": 2
        },
        "metallicFactor": 0.0,
        "roughnessFactor": 0.185714
      }
    },
    {
      "doubleSided": true,
      "name": "Shiny",
      "pbrMetallicRoughness": {
        "baseColorTexture": {
          "index": 3
        },
        "metallicFactor": 0.748571,
        "roughnessFactor": 0.128571
      }
    },
    {
      "doubleSided": true,
      "name": "Front_Texture",
      "pbrMetallicRoughness": {
        "baseColorTexture": {
          "index": 4
        },
        "metallicFactor": 0.0,
        "roughnessFactor": 0.5
      }
    },
    {
      "doubleSided": true,
      "emissiveFactor": [
        1.0,
        1.0,
        1.0
      ],
      "emissiveTexture": {
        "index": 5
      },
      "name": "Screen",
      "pbrMetallicRoughness": {
        "baseColorTexture": {
          "index": 5
        },
        "metallicFactor": 0.377143,
        "roughnessFactor": 0.0942857
      }
    }
  ],
  "meshes": [
    {
      "name": "Object_0",
      "primitives": [
        {
          "attributes": {
            "NORMAL": 1,
            "POSITION": 0,
            "TEXCOORD_0": 2
          },
          "indices": 3,
          "material": 0,
          "mode": 4
        }
      ]
    },
    {
      "name": "Object_1",
      "primitives": [
        {
          "attributes": {
            "NORMAL": 5,
            "POSITION": 4,
            "TEXCOORD_0": 6
          },
          "indices": 7,
          "material": 1,
          "mode": 4
        }
      ]
    },
    {
      "name": "Object_2",
      "primitives": [
        {
          "attributes": {
            "NORMAL": 9,
            "POSITION": 8,
            "TEXCOORD_0": 10
          },
          "indices": 11,
          "material": 2,
          "mode": 4
        }
      ]
    },
    {
      "name": "Object_3",
      "primitives": [
        {
          "attributes": {
            "NORMAL": 13,
            "POSITION": 12,
            "TEXCOORD_0": 14
          },
          "indices": 15,
          "material": 3,
          "mode": 4
        }
      ]
    },
    {
      "name": "Object_4",
      "primitives": [
        {
          "attributes": {
            "NORMAL": 17,
            "POSITION": 16,
            "TEXCOORD_0": 18
          },
          "indices": 19,
          "material": 4,
          "mode": 4
        }
      ]
    },
    {
      "name": "Object_5",
      "primitives": [
        {
          "attributes": {
            "NORMAL": 21,
            "POSITION": 20,
            "TEXCOORD_0": 22,
            "TEXCOORD_1": 23
          },
          "indices": 24,
          "material": 5,
          "mode": 4
        }
      ]
    }
  ],
  "nodes": [
    {
      "children": [
        1
      ],
      "matrix": [
        1.0,
        0.0,
        0.0,
        0.0,
        0.0,
        2.220446049250313e-16,
        -1.0,
        0.0,
        0.0,
        1.0,
        2.220446049250313e-16,
        0.0,
        0.0,
        0.0,
        0.0,
        1.0
      ],
      "name": "Sketchfab_model"
    },
    {
      "children": [
        2
      ],
      "name": "root"
    },
    {
      "children": [
        3
      ],
      "matrix": [
        1.0,
        0.0,
        0.0,
        0.0,
        0.0,
        2.220446049250313e-16,
        1.0,
        0.0,
        0.0,
        -1.0,
        2.220446049250313e-16,
        0.0,
        0.0,
        0.0,
        0.0,
        1.0
      ],
      "name": "GLTF_SceneRootNode"
    },
    {
      "children": [
        4,
        5,
        6,
        7,
        8,
        9
      ],
      "name": "Commodore PET_0"
    },
    {
      "mesh": 0,
      "name": "Object_4"
    },
    {
      "mesh": 1,
      "name": "Object_5"
    },
    {
      "mesh": 2,
      "name": "Object_6"
    },
    {
      "mesh": 3,
      "name": "Object_7"
    },
    {
      "mesh": 4,
      "name": "Object_8"
    },
    {
      "mesh": 5,
      "name": "Object_9"
    }
  ],
  "samplers": [
    {
      "magFilter": 9729,
      "minFilter": 9987,
      "wrapS": 10497,
      "wrapT": 10497
    }
  ],
  "scene": 0,
  "scenes": [
    {
      "name": "Sketchfab_Scene",
      "nodes": [
        0
      ]
    }
  ],
  "textures": [
    {
      "sampler": 0,
      "source": 0
    },
    {
      "sampler": 0,
      "source": 1
    },
    {
      "sampler": 0,
      "source": 2
    },
    {
      "sampler": 0,
      "source": 3
    },
    {
      "sampler": 0,
      "source": 4
    },
    {
      "sampler": 0,
      "source": 5
    }
  ]
}
