{
  "accessors": [
    {
      "bufferView": 2,
      "componentType": 5126,
      "count": 25122,
      "max": [
        22.41611099243164,
        32.749385833740234,
        21.223058700561523
      ],
      "min": [
        -21.99028968811035,
        -0.011926555074751377,
        -18.245275497436523
      ],
      "type": "VEC3"
    },
    {
      "bufferView": 2,
      "byteOffset": 301464,
      "componentType": 5126,
      "count": 25122,
      "max": [
        1.0,
        1.0,
        1.0
      ],
      "min": [
        -1.0,
        -1.0,
        -1.0
      ],
      "type": "VEC3"
    },
    {
      "bufferView": 3,
      "componentType": 5126,
      "count": 25122,
      "max": [
        1.0,
        1.0,
        1.0,
        1.0
      ],
      "min": [
        -1.0,
        -1.0,
        -1.0,
        -1.0
      ],
      "type": "VEC4"
    },
    {
      "bufferView": 1,
      "componentType": 5126,
      "count": 25122,
      "max": [
        0.9973558187484741,
        0.9961369037628174
      ],
      "min": [
        0.002495840424671769,
        0.0024991738609969616
      ],
      "type": "VEC2"
    },
    {
      "bufferView": 1,
      "byteOffset": 200976,
      "componentType": 5126,
      "count": 25122,
      "max": [
        0.9973558187484741,
        0.9961369037628174
      ],
      "min": [
        0.002495840424671769,
        0.0024991738609969616
      ],
      "type": "VEC2"
    },
    {
      "bufferView": 0,
      "componentType": 5125,
      "count": 91881,
      "type": "SCALAR"
    }
  ],
  "asset": {
    "extras": {
      "author": "HippoStance (https://sketchfab.com/hippostance)",
      "license": "CC-BY-4.0 (http://creativecommons.org/licenses/by/4.0/)",
      "source": "https://sketchfab.com/3d-models/bm86-portable-pc-d6f9790446eb4ad5bdfb9c537be5d17c",
      "title": "BM86 Portable PC"
    },
    "generator": "Sketchfab-12.68.0",
    "version": "2.0"
  },
  "bufferViews": [
    {
      "buffer": 0,
      "byteLength": 367524,
      "name": "floatBufferViews",
      "target": 34963
    },
    {
      "buffer": 0,
      "byteLength": 401952,
      "byteOffset": 367524,
      "byteStride": 8,
      "name": "floatBufferViews",
      "target": 34962
    },
    {
      "buffer": 0,
      "byteLength": 602928,
      "byteOffset": 769476,
      "byteStride": 12,
      "name": "floatBufferViews",
      "target": 34962
    },
    {
      "buffer": 0,
      "byteLength": 401952,
      "byteOffset": 1372404,
      "byteStride": 16,
      "name": "floatBufferViews",
      "target": 34962
    }
  ],
  "buffers": [
    {
      "byteLength": 1774356,
      "uri": "scene.bin"
    }
  ],
  "images": [
    {
      "uri": "textures/BM86_Portable_baseColor.png"
    },
    {
      "uri": "textures/BM86_Portable_metallicRoughness.png"
    },
    {
      "uri": "textures/BM86_Portable_emissive.png"
    },
    {
      "uri": "textures/BM86_Portable_normal.png"
    }
  ],
  "materials": [
    {
      "doubleSided": true,
      "emissiveFactor": [
        1.0,
        1.0,
        1.0
      ],
      "emissiveTexture": {
        "index": 2
      },
      "name": "BM86_Portable",
      "normalTexture": {
        "index": 3
      },
      "occlusionTexture": {
        "index": 1
      },
      "pbrMetallicRoughness": {
        "baseColorTexture": {
          "index": 0
        },
        "metallicRoughnessTexture": {
          "index": 1
        }
      }
    }
  ],
  "meshes": [
    {
      "name": "BM86_Portable_BM86_Portable_0",
      "primitives": [
        {
          "attributes": {
            "NORMAL": 1,
            "POSITION": 0,
            "TANGENT": 2,
            "TEXCOORD_0": 3,
            "TEXCOORD_1": 4
          },
          "indices": 5,
          "material": 0,
          "mode": 4
        }
      ]
    }
  ],
  "nodes": [
    {
      "children": [
        1
      ],
      "matrix": [
        0.007911681197583675,
        0.0,
        0.0,
        0.0,
        0.0,
        1.7567461258102658e-18,
        -0.007911681197583675,
        0.0,
        0.0,
        0.007911681197583675,
        1.7567461258102658e-18,
        0.0,
        0.0,
        5.495999744198343e-07,
        7.519999911664866e-08,
        1.0
      ],
      "name": "Sketchfab_model"
    },
    {
      "children": [
        2
      ],
      "matrix": [
        1.0,
        0.0,
        0.0,
        0.0,
        0.0,
        0.0,
        1.0,
        0.0,
        0.0,
        -1.0,
        0.0,
        0.0,
        0.0,
        0.0,
        0.0,
        1.0
      ],
      "name": "ae49a16801dd4c19806558b2e985ef10.fbx"
    },
    {
      "children": [
        3
      ],
      "name": "RootNode"
    },
    {
      "children": [
        4
      ],
      "name": "BM86_Portable"
    },
    {
      "mesh": 0,
      "name": "BM86_Portable_BM86_Portable_0"
    }
  ],
  "samplers": [
    {
      "magFilter": 9729,
      "minFilter": 9987,
      "wrapS": 10497,
      "wrapT": 10497
    }
  ],
  "scene": 0,
  "scenes": [
    {
      "name": "Sketchfab_Scene",
      "nodes": [
        0
      ]
    }
  ],
  "textures": [
    {
      "sampler": 0,
      "source": 0
    },
    {
      "sampler": 0,
      "source": 1
    },
    {
      "sampler": 0,
      "source": 2
    },
    {
      "sampler": 0,
      "source": 3
    }
  ]
}
